<svg xmlns="http://www.w3.org/2000/svg" viewBox="0 0 560 300" font-family="system-ui, -apple-system, sans-serif">
  <rect width="560" height="300" fill="#faf7f3"/>
  <text x="280" y="28" text-anchor="middle" font-size="15" font-weight="600" fill="#4a4440">三张守恒 — 舞台转盘时刻表</text>

  <!-- 进度轴 -->
  <line x1="90" y1="250" x2="500" y2="250" stroke="#c8beb6" stroke-width="1.5"/>
  <text x="90" y="268" font-size="11" fill="#9a908a" text-anchor="middle">p=0</text>
  <line x1="90" y1="246" x2="90" y2="254" stroke="#9a908a"/>
  <text x="295" y="268" font-size="11" fill="#9a908a" text-anchor="middle">p=0.5</text>
  <line x1="295" y1="246" x2="295" y2="254" stroke="#9a908a"/>
  <text x="500" y="268" font-size="11" fill="#9a908a" text-anchor="middle">p=1</text>
  <line x1="500" y1="246" x2="500" y2="254" stroke="#9a908a"/>

  <!-- 泳道1：顶卡 -->
  <text x="82" y="80" font-size="12" fill="#4a4440" text-anchor="end">顶卡</text>
  <rect x="90" y="66" width="410" height="20" rx="10" fill="#a5d3ea"/>
  <text x="295" y="80" font-size="10.5" fill="#fff" text-anchor="middle">全程可见 · 沿峰形轨迹飞向对侧探边位</text>

  <!-- 泳道2：新顶（对侧探边升顶） -->
  <text x="82" y="120" font-size="12" fill="#4a4440" text-anchor="end">新顶</text>
  <rect x="90" y="106" width="410" height="20" rx="10" fill="#a8d8c8"/>
  <text x="295" y="120" font-size="10.5" fill="#fff" text-anchor="middle">全程可见 · 从对侧探边位插值升顶</text>

  <!-- 泳道3：旧对侧探边（退场） -->
  <text x="82" y="160" font-size="12" fill="#4a4440" text-anchor="end">旧探边</text>
  <rect x="90" y="146" width="205" height="20" rx="10" fill="#f0b070"/>
  <text x="192" y="160" font-size="10.5" fill="#fff" text-anchor="middle">前半程保持静止</text>
  <rect x="295" y="146" width="205" height="20" rx="10" fill="#f0b070"/>
  <rect x="295" y="146" width="205" height="20" rx="10" fill="url(#fadeout)"/>
  <text x="397" y="160" font-size="10.5" fill="#fff" text-anchor="middle">向回落顶卡背后收拢（透明度、尺寸递减）</text>

  <!-- 泳道4：新探边（进场） -->
  <text x="82" y="200" font-size="12" fill="#4a4440" text-anchor="end">新探边</text>
  <rect x="295" y="186" width="205" height="20" rx="10" fill="#c5a8dd"/>
  <rect x="295" y="186" width="205" height="20" rx="10" fill="url(#fadein)"/>
  <text x="397" y="200" font-size="10.5" fill="#fff" text-anchor="middle">自升顶卡背后滑出（透明度、尺寸递增）</text>
  <text x="185" y="200" font-size="10.5" fill="#c8beb6" text-anchor="middle">未出场（位于升顶卡正后方）</text>

  <defs>
    <linearGradient id="fadeout" x1="0" x2="1">
      <stop offset="0" stop-color="#faf7f3" stop-opacity="0"/>
      <stop offset="1" stop-color="#faf7f3" stop-opacity="1"/>
    </linearGradient>
    <linearGradient id="fadein" x1="0" x2="1">
      <stop offset="0" stop-color="#faf7f3" stop-opacity="1"/>
      <stop offset="1" stop-color="#faf7f3" stop-opacity="0"/>
    </linearGradient>
  </defs>

  <!-- 交接重叠窗口 -->
  <rect x="290" y="140" width="10" height="72" fill="none" stroke="#e08a9a" stroke-width="1.5" stroke-dasharray="4 3" rx="4"/>
  <text x="295" y="232" font-size="10.5" fill="#c06a7a" text-anchor="middle">p=0.5 顶卡越过峰值回落，进退场镜像同步启动</text>

  <text x="280" y="290" text-anchor="middle" font-size="11.5" fill="#9a908a">进退场依靠遮挡与纵深完成，几乎不依赖透明度 — 行程中段实际可见两张</text>
</svg>
